# This file uses centimeters as units for non-parametric coordinates.

v 12.783864 6.359111 0.000005
v 12.789591 5.986255 0.000005
v 12.799136 5.577861 0.000005
v 12.812500 5.133929 0.000005
v 12.824836 4.737136 0.000005
v 12.833647 4.390273 0.000005
v 12.838933 4.093339 0.000005
v 12.840695 3.846335 0.000005
v 12.838786 2.668586 0.000005
v 12.833059 1.795113 0.000005
v 12.823514 1.225916 0.000005
v 12.810150 0.960996 0.000005
v 12.774906 0.765537 0.000005
v 12.704417 0.439967 0.000005
v 12.598684 -0.015713 0.000005
v 12.457706 -0.601504 0.000005
v 14.861372 0.042293 0.000005
v 14.918644 0.150082 0.000005
v 14.987077 0.304276 0.000005
v 15.066670 0.504875 0.000005
v 15.157425 0.751880 0.000005
v 16.870300 -0.300752 0.000005
v 17.139919 -0.178425 0.000005
v 17.410715 -0.013510 0.000005
v 17.682684 0.193991 0.000005
v 17.955828 0.444079 0.000005
v 18.215900 0.721922 0.000005
v 18.432213 1.003289 0.000005
v 18.604763 1.288181 0.000005
v 18.733553 1.576598 0.000005
v 18.827097 1.907307 0.000005
v 18.893915 2.295583 0.000005
v 18.934006 2.741424 0.000005
v 18.947369 3.244831 0.000005
v 18.935328 3.721070 0.000005
v 18.899200 4.144149 0.000005
v 18.838991 4.514069 0.000005
v 18.754700 4.830827 0.000005
v 18.631344 5.103530 0.000005
v 18.460997 5.345982 0.000005
v 18.243656 5.558183 0.000005
v 17.979322 5.740131 0.000005
v 17.651991 5.890067 0.000005
v 17.262100 6.010926 0.000005
v 16.809650 6.102708 0.000005
v 16.294643 6.165413 0.000005
v 16.092134 5.874060 0.000005
v 15.881697 5.601504 0.000005
v 15.663328 5.347744 0.000005
v 15.437030 5.112782 0.000005
v 15.328066 5.873179 0.000005
v 15.250235 6.591870 0.000005
v 15.203536 7.268856 0.000005
v 15.187970 7.904135 0.000005
v 15.187970 9.245770 0.000005
v 15.187530 9.292616 0.000005
v 15.186208 9.346217 0.000005
v 15.184005 9.406573 0.000005
v 15.180921 9.473684 0.000005
v 14.889421 9.381314 0.000005
v 14.555334 9.285127 0.000005
v 14.178659 9.185121 0.000005
v 13.759398 9.081297 0.000005
v 12.781955 8.841636 0.000005
v 12.781955 6.696429 0.000005
v 16.231791 4.274260 0.000005
v 16.487312 3.680686 0.000005
v 16.640625 3.031309 0.000005
v 16.691729 2.326128 0.000005
v 16.688793 2.202773 0.000005
v 16.679981 2.074718 0.000005
v 16.665297 1.941964 0.000005
v 16.644737 1.804511 0.000005
v 16.247356 1.922433 0.000005
v 15.879934 2.041236 0.000005
v 15.542469 2.160920 0.000005
v 15.234962 2.281485 0.000005
v 15.238781 2.490895 0.000005
v 15.243186 2.707942 0.000005
v 15.248179 2.932625 0.000005
v 15.253759 3.164944 0.000005
v 15.258899 3.388598 0.000005
v 15.262570 3.587289 0.000005
v 15.264773 3.761014 0.000005
v 15.265508 3.909775 0.000005
v 15.396939 4.056920 0.000005
v 15.542175 4.256344 0.000005
v 15.701216 4.508048 0.000005
v 15.874060 4.812030 0.000005
vt 0.782615 0.389666
vt 0.782743 0.381336
vt 0.782956 0.372211
vt 0.783255 0.362292
vt 0.783530 0.353426
vt 0.783727 0.345676
vt 0.783845 0.339042
vt 0.783885 0.333523
vt 0.783842 0.307208
vt 0.783714 0.287692
vt 0.783501 0.274975
vt 0.783202 0.269055
vt 0.782415 0.264688
vt 0.780840 0.257414
vt 0.778478 0.247233
vt 0.775328 0.234144
vt 0.829033 0.248529
vt 0.830313 0.250937
vt 0.831842 0.254382
vt 0.833620 0.258864
vt 0.835648 0.264383
vt 0.873919 0.240864
vt 0.879943 0.243597
vt 0.885993 0.247282
vt 0.892070 0.251918
vt 0.898173 0.257506
vt 0.903984 0.263714
vt 0.908817 0.270000
vt 0.912672 0.276366
vt 0.915550 0.282810
vt 0.917640 0.290199
vt 0.919133 0.298874
vt 0.920029 0.308836
vt 0.920327 0.320084
vt 0.920058 0.330724
vt 0.919251 0.340177
vt 0.917906 0.348442
vt 0.916022 0.355520
vt 0.913266 0.361613
vt 0.909460 0.367030
vt 0.904604 0.371771
vt 0.898698 0.375836
vt 0.891384 0.379187
vt 0.882673 0.381887
vt 0.872564 0.383938
vt 0.861057 0.385339
vt 0.856532 0.378829
vt 0.851830 0.372739
vt 0.846951 0.367069
vt 0.841895 0.361820
vt 0.839460 0.378809
vt 0.837722 0.394867
vt 0.836678 0.409993
vt 0.836330 0.424187
vt 0.836330 0.454164
vt 0.836321 0.455210
vt 0.836291 0.456408
vt 0.836242 0.457756
vt 0.836173 0.459256
vt 0.829660 0.457192
vt 0.822195 0.455043
vt 0.813779 0.452808
vt 0.804412 0.450489
vt 0.782572 0.445134
vt 0.782572 0.397203
vt 0.859653 0.343084
vt 0.865362 0.329822
vt 0.868787 0.315313
vt 0.869929 0.299557
vt 0.869863 0.296801
vt 0.869667 0.293940
vt 0.869339 0.290973
vt 0.868879 0.287902
vt 0.860000 0.290537
vt 0.851791 0.293191
vt 0.844251 0.295866
vt 0.837380 0.298559
vt 0.837466 0.303238
vt 0.837564 0.308088
vt 0.837676 0.313108
vt 0.837800 0.318299
vt 0.837915 0.323296
vt 0.837997 0.327735
vt 0.838046 0.331617
vt 0.838063 0.334941
vt 0.840999 0.338228
vt 0.844244 0.342684
vt 0.847798 0.348308
vt 0.851660 0.355100
vn 0.000000 0.000000 1.000000
vn 0.000000 0.000000 1.000000
vn 0.000000 0.000000 1.000000
vn 0.000000 0.000000 1.000000
vn 0.000000 0.000000 1.000000
vn 0.000000 0.000000 1.000000
vn 0.000000 0.000000 1.000000
vn 0.000000 0.000000 1.000000
vn 0.000000 0.000000 1.000000
vn 0.000000 0.000000 1.000000
vn 0.000000 0.000000 1.000000
vn 0.000000 0.000000 1.000000
vn 0.000000 0.000000 1.000000
vn 0.000000 0.000000 1.000000
vn 0.000000 0.000000 1.000000
vn 0.000000 0.000000 1.000000
vn 0.000000 0.000000 1.000000
vn 0.000000 0.000000 1.000000
vn 0.000000 0.000000 1.000000
vn 0.000000 0.000000 1.000000
vn 0.000000 0.000000 1.000000
vn 0.000000 0.000000 1.000000
vn 0.000000 0.000000 1.000000
vn 0.000000 0.000000 1.000000
vn 0.000000 0.000000 1.000000
vn 0.000000 0.000000 1.000000
vn 0.000000 0.000000 1.000000
vn 0.000000 0.000000 1.000000
vn 0.000000 0.000000 1.000000
vn 0.000000 0.000000 1.000000
vn 0.000000 0.000000 1.000000
vn 0.000000 0.000000 1.000000
vn 0.000000 0.000000 1.000000
vn 0.000000 0.000000 1.000000
vn 0.000000 0.000000 1.000000
vn 0.000000 0.000000 1.000000
vn 0.000000 0.000000 1.000000
vn 0.000000 0.000000 1.000000
vn 0.000000 0.000000 1.000000
vn 0.000000 0.000000 1.000000
vn 0.000000 0.000000 1.000000
vn 0.000000 0.000000 1.000000
vn 0.000000 0.000000 1.000000
vn 0.000000 0.000000 1.000000
vn 0.000000 0.000000 1.000000
vn 0.000000 0.000000 1.000000
vn 0.000000 0.000000 1.000000
vn 0.000000 0.000000 1.000000
vn 0.000000 0.000000 1.000000
vn 0.000000 0.000000 1.000000
vn 0.000000 0.000000 1.000000
vn 0.000000 0.000000 1.000000
vn 0.000000 0.000000 1.000000
vn 0.000000 0.000000 1.000000
vn 0.000000 0.000000 1.000000
vn 0.000000 0.000000 1.000000
vn 0.000000 0.000000 1.000000
vn 0.000000 0.000000 1.000000
vn 0.000000 0.000000 1.000000
vn 0.000000 0.000000 1.000000
vn 0.000000 0.000000 1.000000
vn 0.000000 0.000000 1.000000
vn 0.000000 0.000000 1.000000
vn 0.000000 0.000000 1.000000
vn 0.000000 0.000000 1.000000
vn 0.000000 0.000000 1.000000
vn 0.000000 0.000000 1.000000
vn 0.000000 0.000000 1.000000
vn 0.000000 0.000000 1.000000
vn 0.000000 0.000000 1.000000
vn 0.000000 0.000000 1.000000
vn 0.000000 0.000000 1.000000
vn 0.000000 0.000000 1.000000
vn 0.000000 0.000000 1.000000
vn 0.000000 0.000000 1.000000
vn 0.000000 0.000000 1.000000
vn 0.000000 0.000000 1.000000
vn 0.000000 0.000000 1.000000
vn 0.000000 0.000000 1.000000
vn 0.000000 0.000000 1.000000
vn 0.000000 0.000000 1.000000
vn 0.000000 0.000000 1.000000
vn 0.000000 0.000000 1.000000
vn 0.000000 0.000000 1.000000
vn 0.000000 0.000000 1.000000
vn 0.000000 0.000000 1.000000
vn 0.000000 0.000000 1.000000
vn 0.000000 0.000000 1.000000
vn 0.000000 0.000000 1.000000
s off
f 1/1/1 2/2/2 3/3/3 4/4/4 5/5/5 6/6/6 7/7/7 8/8/8 9/9/9 10/10/10 11/11/11 12/12/12 13/13/13 14/14/14 15/15/15 16/16/16 17/17/17 18/18/18 19/19/19 20/20/20 21/21/21 22/22/22 23/23/23 24/24/24 25/25/25 26/26/26 27/27/27 28/28/28 29/29/29 30/30/30 31/31/31 32/32/32 33/33/33 34/34/34 35/35/35 36/36/36 37/37/37 38/38/38 39/39/39 40/40/40 41/41/41 42/42/42 43/43/43 44/44/44 45/45/45 46/46/46 47/47/47 48/48/48 49/49/49 50/50/50 51/51/51 52/52/52 53/53/53 54/54/54 55/55/55 56/56/56 57/57/57 58/58/58 59/59/59 60/60/60 61/61/61 62/62/62 63/63/63 64/64/64 65/65/65 66/66/66 67/67/67 68/68/68 69/69/69 70/70/70 71/71/71 72/72/72 73/73/73 74/74/74 75/75/75 76/76/76 77/77/77 78/78/78 79/79/79 80/80/80 81/81/81 82/82/82 83/83/83 84/84/84 85/85/85 86/86/86 87/87/87 88/88/88 89/89/89
