# This file uses centimeters as units for non-parametric coordinates.

v 115.228279 8.404678 0.000047
v 115.177689 7.859786 0.000047
v 115.134880 7.221056 0.000047
v 115.099861 6.488487 0.000047
v 115.072617 5.669423 0.000047
v 115.053162 4.771205 0.000047
v 115.041489 3.793835 0.000047
v 115.037598 2.737312 0.000047
v 115.051689 0.603853 0.000047
v 115.044640 -0.601504 0.000047
v 117.297935 -0.089286 0.000047
v 117.352562 0.130110 0.000047
v 117.488251 0.468750 0.000047
v 117.705002 0.926633 0.000047
v 118.002823 1.503759 0.000047
v 118.762192 1.039121 0.000047
v 119.369713 0.533365 0.000047
v 119.825394 -0.013510 0.000047
v 120.129227 -0.601504 0.000047
v 120.311546 -0.422785 0.000047
v 120.499001 -0.232025 0.000047
v 120.691597 -0.029223 0.000047
v 120.889336 0.185620 0.000047
v 121.095291 0.416177 0.000047
v 121.312561 0.666118 0.000047
v 121.541130 0.935444 0.000047
v 121.781013 1.224154 0.000047
v 121.495094 1.677485 0.000047
v 121.217690 2.060033 0.000047
v 120.948807 2.371799 0.000047
v 120.688438 2.612782 0.000047
v 120.419701 2.785479 0.000047
v 120.128052 2.908835 0.000047
v 119.813499 2.982848 0.000047
v 119.476036 3.007519 0.000047
v 119.425369 3.007519 0.000047
v 119.376762 3.007519 0.000047
v 119.330208 3.007519 0.000047
v 119.285713 3.007519 0.000047
v 119.404518 3.217223 0.000047
v 119.525963 3.411654 0.000047
v 119.650055 3.590813 0.000047
v 119.776787 3.754699 0.000047
v 119.989281 4.009634 0.000047
v 120.156837 4.217575 0.000047
v 120.279457 4.378524 0.000047
v 120.357140 4.492481 0.000047
v 120.401642 4.579417 0.000047
v 120.448189 4.701598 0.000047
v 120.496796 4.859023 0.000047
v 120.547462 5.051692 0.000047
v 120.592400 5.250235 0.000047
v 120.630875 5.476974 0.000047
v 120.662888 5.731908 0.000047
v 120.688438 6.015038 0.000047
v 119.711876 5.841312 0.000047
v 119.014336 5.717223 0.000047
v 118.595802 5.642769 0.000047
v 118.456299 5.617951 0.000047
v 118.475830 5.475799 0.000047
v 118.489777 5.333647 0.000047
v 118.498146 5.191494 0.000047
v 118.500938 5.049342 0.000047
v 118.434860 4.369860 0.000047
v 118.236610 3.602561 0.000047
v 117.906189 2.747445 0.000047
v 117.443611 1.804511 0.000047
v 117.443611 3.559680 0.000047
v 117.485901 5.548784 0.000047
v 117.612785 7.197486 0.000047
v 117.824249 8.505786 0.000047
v 118.120300 9.473684 0.000047
v 117.537010 9.398937 0.000047
v 116.870300 9.271029 0.000047
v 116.120186 9.089961 0.000047
v 115.286652 8.855733 0.000047
vt 0.623261 0.438731
vt 0.622131 0.426556
vt 0.621174 0.412285
vt 0.620392 0.395917
vt 0.619783 0.377616
vt 0.619348 0.357547
vt 0.619088 0.335710
vt 0.619001 0.312104
vt 0.619316 0.264436
vt 0.619158 0.237504
vt 0.669504 0.248949
vt 0.670724 0.253851
vt 0.673756 0.261417
vt 0.678599 0.271648
vt 0.685253 0.284542
vt 0.702220 0.274161
vt 0.715794 0.262861
vt 0.725975 0.250642
vt 0.732764 0.237504
vt 0.736837 0.241497
vt 0.741026 0.245759
vt 0.745329 0.250291
vt 0.749747 0.255091
vt 0.754349 0.260242
vt 0.759203 0.265827
vt 0.764310 0.271844
vt 0.769670 0.278295
vt 0.763282 0.288424
vt 0.757084 0.296971
vt 0.751076 0.303937
vt 0.745258 0.309321
vt 0.739254 0.313180
vt 0.732738 0.315936
vt 0.725709 0.317590
vt 0.718169 0.318141
vt 0.717037 0.318141
vt 0.715951 0.318141
vt 0.714911 0.318141
vt 0.713917 0.318141
vt 0.716572 0.322827
vt 0.719285 0.327171
vt 0.722058 0.331174
vt 0.724889 0.334835
vt 0.729637 0.340532
vt 0.733381 0.345178
vt 0.736120 0.348774
vt 0.737856 0.351320
vt 0.738850 0.353262
vt 0.739890 0.355992
vt 0.740976 0.359510
vt 0.742109 0.363814
vt 0.743113 0.368250
vt 0.743972 0.373317
vt 0.744687 0.379013
vt 0.745258 0.385339
vt 0.723439 0.381457
vt 0.707854 0.378684
vt 0.698502 0.377021
vt 0.695385 0.376466
vt 0.695822 0.373290
vt 0.696133 0.370114
vt 0.696320 0.366938
vt 0.696383 0.363762
vt 0.694906 0.348580
vt 0.690477 0.331436
vt 0.683094 0.312330
vt 0.672759 0.291262
vt 0.672759 0.330478
vt 0.673704 0.374921
vt 0.676539 0.411758
vt 0.681263 0.440990
vt 0.687878 0.462616
vt 0.674846 0.460946
vt 0.659949 0.458088
vt 0.643189 0.454042
vt 0.624565 0.448809
vn -0.000000 0.000000 1.000000
vn -0.000000 0.000000 1.000000
vn -0.000000 0.000000 1.000000
vn -0.000000 0.000000 1.000000
vn -0.000000 0.000000 1.000000
vn -0.000000 0.000000 1.000000
vn -0.000000 0.000000 1.000000
vn -0.000000 0.000000 1.000000
vn -0.000000 0.000000 1.000000
vn -0.000000 0.000000 1.000000
vn -0.000000 0.000000 1.000000
vn -0.000000 0.000000 1.000000
vn -0.000000 0.000000 1.000000
vn -0.000000 0.000000 1.000000
vn -0.000000 0.000000 1.000000
vn -0.000000 0.000000 1.000000
vn -0.000000 0.000000 1.000000
vn -0.000000 0.000000 1.000000
vn -0.000000 0.000000 1.000000
vn -0.000000 0.000000 1.000000
vn -0.000000 0.000000 1.000000
vn -0.000000 0.000000 1.000000
vn -0.000000 0.000000 1.000000
vn -0.000000 0.000000 1.000000
vn -0.000000 0.000000 1.000000
vn -0.000000 0.000000 1.000000
vn -0.000000 0.000000 1.000000
vn -0.000000 0.000000 1.000000
vn -0.000000 0.000000 1.000000
vn -0.000000 0.000000 1.000000
vn -0.000000 0.000000 1.000000
vn -0.000000 0.000000 1.000000
vn -0.000000 0.000000 1.000000
vn -0.000000 0.000000 1.000000
vn -0.000000 0.000000 1.000000
vn -0.000000 0.000000 1.000000
vn -0.000000 0.000000 1.000000
vn -0.000000 0.000000 1.000000
vn -0.000000 0.000000 1.000000
vn -0.000000 0.000000 1.000000
vn -0.000000 0.000000 1.000000
vn -0.000000 0.000000 1.000000
vn -0.000000 0.000000 1.000000
vn -0.000000 0.000000 1.000000
vn -0.000000 0.000000 1.000000
vn -0.000000 0.000000 1.000000
vn -0.000000 0.000000 1.000000
vn -0.000000 0.000000 1.000000
vn -0.000000 0.000000 1.000000
vn -0.000000 0.000000 1.000000
vn -0.000000 0.000000 1.000000
vn -0.000000 0.000000 1.000000
vn -0.000000 0.000000 1.000000
vn -0.000000 0.000000 1.000000
vn -0.000000 0.000000 1.000000
vn -0.000000 0.000000 1.000000
vn -0.000000 0.000000 1.000000
vn -0.000000 0.000000 1.000000
vn -0.000000 0.000000 1.000000
vn -0.000000 0.000000 1.000000
vn -0.000000 0.000000 1.000000
vn -0.000000 0.000000 1.000000
vn -0.000000 0.000000 1.000000
vn -0.000000 0.000000 1.000000
vn -0.000000 0.000000 1.000000
vn -0.000000 0.000000 1.000000
vn -0.000000 0.000000 1.000000
vn -0.000000 0.000000 1.000000
vn -0.000000 0.000000 1.000000
vn -0.000000 0.000000 1.000000
vn -0.000000 0.000000 1.000000
vn -0.000000 0.000000 1.000000
vn -0.000000 0.000000 1.000000
vn -0.000000 0.000000 1.000000
vn -0.000000 0.000000 1.000000
vn -0.000000 0.000000 1.000000
s off
f 1/1/1 2/2/2 3/3/3 4/4/4 5/5/5 6/6/6 7/7/7 8/8/8 9/9/9 10/10/10 11/11/11 12/12/12 13/13/13 14/14/14 15/15/15 16/16/16 17/17/17 18/18/18 19/19/19 20/20/20 21/21/21 22/22/22 23/23/23 24/24/24 25/25/25 26/26/26 27/27/27 28/28/28 29/29/29 30/30/30 31/31/31 32/32/32 33/33/33 34/34/34 35/35/35 36/36/36 37/37/37 38/38/38 39/39/39 40/40/40 41/41/41 42/42/42 43/43/43 44/44/44 45/45/45 46/46/46 47/47/47 48/48/48 49/49/49 50/50/50 51/51/51 52/52/52 53/53/53 54/54/54 55/55/55 56/56/56 57/57/57 58/58/58 59/59/59 60/60/60 61/61/61 62/62/62 63/63/63 64/64/64 65/65/65 66/66/66 67/67/67 68/68/68 69/69/69 70/70/70 71/71/71 72/72/72 73/73/73 74/74/74 75/75/75 76/76/76
