# This file uses centimeters as units for non-parametric coordinates.

v 201.972076 3.575100 0.000080
v 201.962524 3.127937 0.000080
v 201.956802 2.699865 0.000080
v 201.954880 2.290884 0.000080
v 201.980148 1.731232 0.000080
v 202.055923 1.269384 0.000080
v 202.182220 0.905340 0.000080
v 202.359024 0.639098 0.000080
v 202.554626 0.440995 0.000080
v 202.746704 0.274319 0.000080
v 202.935272 0.139068 0.000080
v 203.120300 0.035244 0.000080
v 203.368927 -0.045965 0.000080
v 203.767029 -0.103971 0.000080
v 204.314651 -0.138775 0.000080
v 205.011749 -0.150376 0.000080
v 205.228653 0.358611 0.000080
v 205.428223 0.847039 0.000080
v 205.610458 1.314908 0.000080
v 205.775375 1.762218 0.000080
v 205.512070 1.777050 0.000080
v 205.229675 1.821546 0.000080
v 204.928192 1.895706 0.000080
v 204.607620 1.999530 0.000080
v 204.582214 2.200570 0.000080
v 204.557678 2.439497 0.000080
v 204.534042 2.716312 0.000080
v 204.511276 3.031015 0.000080
v 204.596298 3.255404 0.000080
v 204.740952 3.526786 0.000080
v 204.945221 3.845160 0.000080
v 205.209122 4.210526 0.000080
v 205.399872 4.126527 0.000080
v 205.662003 3.973214 0.000080
v 205.995514 3.750587 0.000080
v 206.400375 3.458647 0.000080
v 206.533127 3.913593 0.000080
v 206.654129 4.347980 0.000080
v 206.763397 4.761807 0.000080
v 206.860901 5.155075 0.000080
v 207.105270 6.099624 0.000080
v 206.835205 6.194196 0.000080
v 206.577179 6.261748 0.000080
v 206.331207 6.302279 0.000080
v 206.097275 6.315790 0.000080
v 205.903580 6.306098 0.000080
v 205.724274 6.277020 0.000080
v 205.559357 6.228559 0.000080
v 205.408829 6.160714 0.000080
v 205.269913 6.078918 0.000080
v 205.153900 5.990954 0.000080
v 205.060791 5.896822 0.000080
v 204.990601 5.796523 0.000080
v 204.925110 5.678307 0.000080
v 204.862549 5.537477 0.000080
v 204.802933 5.374031 0.000080
v 204.746246 5.187970 0.000080
v 204.674423 4.949777 0.000080
v 204.597626 4.707472 0.000080
v 204.515823 4.461055 0.000080
v 204.429047 4.210526 0.000080
v 204.302155 5.953948 0.000080
v 202.037125 6.165413 0.000080
v 201.985428 4.041353 0.000080
vt 0.130006 0.936772
vt 0.129793 0.926781
vt 0.129665 0.917217
vt 0.129622 0.908079
vt 0.130186 0.895575
vt 0.131879 0.885255
vt 0.134701 0.877121
vt 0.138652 0.871173
vt 0.143022 0.866746
vt 0.147314 0.863022
vt 0.151527 0.860001
vt 0.155661 0.857681
vt 0.161216 0.855866
vt 0.170111 0.854570
vt 0.182347 0.853793
vt 0.197922 0.853533
vt 0.202768 0.864906
vt 0.207227 0.875819
vt 0.211299 0.886272
vt 0.214984 0.896267
vt 0.209101 0.896598
vt 0.202791 0.897592
vt 0.196055 0.899249
vt 0.188892 0.901569
vt 0.188325 0.906061
vt 0.187777 0.911399
vt 0.187248 0.917584
vt 0.186740 0.924616
vt 0.188639 0.929629
vt 0.191871 0.935693
vt 0.196435 0.942806
vt 0.202332 0.950970
vt 0.206594 0.949093
vt 0.212451 0.945667
vt 0.219902 0.940693
vt 0.228948 0.934170
vt 0.231914 0.944335
vt 0.234618 0.954041
vt 0.237059 0.963287
vt 0.239238 0.972074
vt 0.244698 0.993178
vt 0.238664 0.995291
vt 0.232899 0.996801
vt 0.227403 0.997706
vt 0.222176 0.998008
vt 0.217848 0.997792
vt 0.213842 0.997142
vt 0.210157 0.996059
vt 0.206794 0.994543
vt 0.203690 0.992716
vt 0.201098 0.990750
vt 0.199018 0.988647
vt 0.197449 0.986406
vt 0.195986 0.983765
vt 0.194588 0.980618
vt 0.193256 0.976966
vt 0.191990 0.972809
vt 0.190385 0.967487
vt 0.188669 0.962073
vt 0.186841 0.956567
vt 0.184903 0.950970
vt 0.182067 0.989923
vt 0.131459 0.994648
vt 0.130304 0.947190
vn 0.000000 0.000000 1.000000
vn 0.000000 0.000000 1.000000
vn 0.000000 0.000000 1.000000
vn 0.000000 0.000000 1.000000
vn 0.000000 0.000000 1.000000
vn 0.000000 0.000000 1.000000
vn 0.000000 0.000000 1.000000
vn 0.000000 0.000000 1.000000
vn 0.000000 0.000000 1.000000
vn 0.000000 0.000000 1.000000
vn 0.000000 0.000000 1.000000
vn 0.000000 0.000000 1.000000
vn 0.000000 0.000000 1.000000
vn 0.000000 0.000000 1.000000
vn 0.000000 0.000000 1.000000
vn 0.000000 0.000000 1.000000
vn 0.000000 0.000000 1.000000
vn 0.000000 0.000000 1.000000
vn 0.000000 0.000000 1.000000
vn 0.000000 0.000000 1.000000
vn 0.000000 0.000000 1.000000
vn 0.000000 0.000000 1.000000
vn 0.000000 0.000000 1.000000
vn 0.000000 0.000000 1.000000
vn 0.000000 0.000000 1.000000
vn 0.000000 0.000000 1.000000
vn 0.000000 0.000000 1.000000
vn 0.000000 0.000000 1.000000
vn 0.000000 0.000000 1.000000
vn 0.000000 0.000000 1.000000
vn 0.000000 0.000000 1.000000
vn 0.000000 0.000000 1.000000
vn 0.000000 0.000000 1.000000
vn 0.000000 0.000000 1.000000
vn 0.000000 0.000000 1.000000
vn 0.000000 0.000000 1.000000
vn 0.000000 0.000000 1.000000
vn 0.000000 0.000000 1.000000
vn 0.000000 0.000000 1.000000
vn 0.000000 0.000000 1.000000
vn 0.000000 0.000000 1.000000
vn 0.000000 0.000000 1.000000
vn 0.000000 0.000000 1.000000
vn 0.000000 0.000000 1.000000
vn 0.000000 0.000000 1.000000
vn 0.000000 0.000000 1.000000
vn 0.000000 0.000000 1.000000
vn 0.000000 0.000000 1.000000
vn 0.000000 0.000000 1.000000
vn 0.000000 0.000000 1.000000
vn 0.000000 0.000000 1.000000
vn 0.000000 0.000000 1.000000
vn 0.000000 0.000000 1.000000
vn 0.000000 0.000000 1.000000
vn 0.000000 0.000000 1.000000
vn 0.000000 0.000000 1.000000
vn 0.000000 0.000000 1.000000
vn 0.000000 0.000000 1.000000
vn 0.000000 0.000000 1.000000
vn 0.000000 0.000000 1.000000
vn 0.000000 0.000000 1.000000
vn 0.000000 0.000000 1.000000
vn 0.000000 0.000000 1.000000
vn 0.000000 0.000000 1.000000
s off
f 1/1/1 2/2/2 3/3/3 4/4/4 5/5/5 6/6/6 7/7/7 8/8/8 9/9/9 10/10/10 11/11/11 12/12/12 13/13/13 14/14/14 15/15/15 16/16/16 17/17/17 18/18/18 19/19/19 20/20/20 21/21/21 22/22/22 23/23/23 24/24/24 25/25/25 26/26/26 27/27/27 28/28/28 29/29/29 30/30/30 31/31/31 32/32/32 33/33/33 34/34/34 35/35/35 36/36/36 37/37/37 38/38/38 39/39/39 40/40/40 41/41/41 42/42/42 43/43/43 44/44/44 45/45/45 46/46/46 47/47/47 48/48/48 49/49/49 50/50/50 51/51/51 52/52/52 53/53/53 54/54/54 55/55/55 56/56/56 57/57/57 58/58/58 59/59/59 60/60/60 61/61/61 62/62/62 63/63/63 64/64/64
