# This file uses centimeters as units for non-parametric coordinates.

v 214.103180 5.839844 0.000085
v 213.616653 5.528078 0.000085
v 213.232635 5.230116 0.000085
v 212.951126 4.945959 0.000085
v 212.745529 4.648291 0.000085
v 212.598679 4.316847 0.000085
v 212.510574 3.951627 0.000085
v 212.481201 3.552632 0.000085
v 212.529953 3.065672 0.000085
v 212.676224 2.657425 0.000085
v 212.919998 2.327890 0.000085
v 213.261276 2.077068 0.000085
v 213.687881 1.882783 0.000085
v 214.201721 1.744008 0.000085
v 214.802780 1.660744 0.000085
v 215.491074 1.632989 0.000085
v 215.536896 1.633870 0.000085
v 215.622650 1.636513 0.000085
v 215.748352 1.640919 0.000085
v 215.914001 1.647087 0.000085
v 215.987579 1.650170 0.000085
v 216.055573 1.652373 0.000085
v 216.117981 1.653695 0.000085
v 216.174805 1.654135 0.000085
v 216.431808 1.634310 0.000085
v 216.678802 1.574836 0.000085
v 216.915817 1.475711 0.000085
v 217.142853 1.336936 0.000085
v 216.810242 1.150875 0.000085
v 216.463226 1.017975 0.000085
v 216.101822 0.938234 0.000085
v 215.726028 0.911654 0.000085
v 215.016739 0.942933 0.000085
v 214.345627 1.036772 0.000085
v 213.712692 1.193169 0.000085
v 213.117950 1.412124 0.000085
v 212.986084 1.109610 0.000085
v 212.872421 0.831767 0.000085
v 212.776962 0.578595 0.000085
v 212.699722 0.350094 0.000085
v 213.277573 0.065349 0.000085
v 213.923279 -0.138040 0.000085
v 214.636841 -0.260074 0.000085
v 215.418228 -0.300752 0.000085
v 215.882721 -0.284158 0.000085
v 216.336349 -0.234375 0.000085
v 216.779099 -0.151404 0.000085
v 217.210999 -0.035244 0.000085
v 217.610733 0.101768 0.000085
v 217.945251 0.247298 0.000085
v 218.214584 0.401345 0.000085
v 218.418701 0.563910 0.000085
v 218.581558 0.739104 0.000085
v 218.734146 0.940437 0.000085
v 218.876434 1.167910 0.000085
v 219.008453 1.421522 0.000085
v 219.113312 1.688499 0.000085
v 219.188202 1.958412 0.000085
v 219.233139 2.231262 0.000085
v 219.248123 2.507049 0.000085
v 219.235046 2.750382 0.000085
v 219.195847 2.963463 0.000085
v 219.130493 3.146293 0.000085
v 219.039001 3.298872 0.000085
v 218.921082 3.426780 0.000085
v 218.783478 3.530898 0.000085
v 218.626205 3.611225 0.000085
v 218.449249 3.667763 0.000085
v 218.218399 3.707854 0.000085
v 217.906479 3.736490 0.000085
v 217.513504 3.753671 0.000085
v 217.039474 3.759398 0.000085
v 216.164246 3.824600 0.000085
v 215.488724 4.020207 0.000085
v 215.012924 4.346217 0.000085
v 214.736847 4.802631 0.000085
v 215.872879 4.687941 0.000085
v 216.806854 4.557683 0.000085
v 217.538773 4.411860 0.000085
v 218.068604 4.250470 0.000085
v 218.087997 4.475593 0.000085
v 218.139099 4.753877 0.000085
v 218.221924 5.085321 0.000085
v 218.336472 5.469925 0.000085
v 218.405777 5.692698 0.000085
v 218.456299 5.855851 0.000085
v 218.488022 5.959381 0.000085
v 218.500946 6.003290 0.000085
v 217.874176 6.008136 0.000085
v 217.239197 6.022674 0.000085
v 216.595978 6.046905 0.000085
v 215.944550 6.080827 0.000085
v 215.413391 6.117834 0.000085
v 215.027603 6.144267 0.000085
v 214.787216 6.160127 0.000085
v 214.692200 6.165413 0.000085
vt 0.913053 0.736126
vt 0.906087 0.746997
vt 0.899430 0.755577
vt 0.893081 0.761867
vt 0.886430 0.766460
vt 0.879024 0.769741
vt 0.870864 0.771710
vt 0.861949 0.772366
vt 0.851069 0.771277
vt 0.841948 0.768009
vt 0.834585 0.762562
vt 0.828981 0.754937
vt 0.824640 0.745405
vt 0.821539 0.733924
vt 0.819679 0.720495
vt 0.819059 0.705116
vt 0.819078 0.704092
vt 0.819137 0.702176
vt 0.819236 0.699368
vt 0.819373 0.695667
vt 0.819442 0.694023
vt 0.819492 0.692503
vt 0.819521 0.691109
vt 0.819531 0.689839
vt 0.819088 0.684097
vt 0.817759 0.678578
vt 0.815544 0.673283
vt 0.812443 0.668210
vt 0.808287 0.675642
vt 0.805317 0.683395
vt 0.803535 0.691470
vt 0.802941 0.699866
vt 0.803640 0.715714
vt 0.805737 0.730709
vt 0.809231 0.744851
vt 0.814124 0.758139
vt 0.807364 0.761086
vt 0.801157 0.763625
vt 0.795500 0.765758
vt 0.790395 0.767484
vt 0.784032 0.754573
vt 0.779488 0.740146
vt 0.776761 0.724202
vt 0.775853 0.706744
vt 0.776223 0.696365
vt 0.777336 0.686230
vt 0.779190 0.676338
vt 0.781785 0.666687
vt 0.784846 0.657756
vt 0.788098 0.650282
vt 0.791540 0.644264
vt 0.795172 0.639704
vt 0.799086 0.636065
vt 0.803584 0.632656
vt 0.808667 0.629476
vt 0.814334 0.626527
vt 0.820298 0.624184
vt 0.826329 0.622511
vt 0.832426 0.621507
vt 0.838588 0.621172
vt 0.844024 0.621464
vt 0.848786 0.622340
vt 0.852870 0.623800
vt 0.856280 0.625844
vt 0.859137 0.628479
vt 0.861464 0.631553
vt 0.863258 0.635067
vt 0.864522 0.639021
vt 0.865417 0.644179
vt 0.866057 0.651148
vt 0.866441 0.659929
vt 0.866569 0.670520
vt 0.868026 0.690075
vt 0.872396 0.705169
vt 0.879681 0.715800
vt 0.889878 0.721968
vt 0.887316 0.696585
vt 0.884405 0.675717
vt 0.881147 0.659364
vt 0.877541 0.647526
vt 0.882571 0.647093
vt 0.888789 0.645951
vt 0.896195 0.644100
vt 0.904788 0.641541
vt 0.909765 0.639992
vt 0.913410 0.638864
vt 0.915724 0.638155
vt 0.916705 0.637866
vt 0.916813 0.651870
vt 0.917138 0.666057
vt 0.917679 0.680429
vt 0.918437 0.694984
vt 0.919264 0.706852
vt 0.919855 0.715472
vt 0.920209 0.720843
vt 0.920327 0.722965
vn 0.000000 0.000000 1.000000
vn 0.000000 0.000000 1.000000
vn 0.000000 0.000000 1.000000
vn 0.000000 0.000000 1.000000
vn 0.000000 0.000000 1.000000
vn 0.000000 0.000000 1.000000
vn 0.000000 0.000000 1.000000
vn 0.000000 0.000000 1.000000
vn 0.000000 0.000000 1.000000
vn 0.000000 0.000000 1.000000
vn 0.000000 0.000000 1.000000
vn 0.000000 0.000000 1.000000
vn 0.000000 0.000000 1.000000
vn 0.000000 0.000000 1.000000
vn 0.000000 0.000000 1.000000
vn 0.000000 0.000000 1.000000
vn 0.000000 0.000000 1.000000
vn 0.000000 0.000000 1.000000
vn 0.000000 0.000000 1.000000
vn 0.000000 0.000000 1.000000
vn 0.000000 0.000000 1.000000
vn 0.000000 0.000000 1.000000
vn 0.000000 0.000000 1.000000
vn 0.000000 0.000000 1.000000
vn 0.000000 0.000000 1.000000
vn 0.000000 0.000000 1.000000
vn 0.000000 0.000000 1.000000
vn 0.000000 0.000000 1.000000
vn 0.000000 0.000000 1.000000
vn 0.000000 0.000000 1.000000
vn 0.000000 0.000000 1.000000
vn 0.000000 0.000000 1.000000
vn 0.000000 0.000000 1.000000
vn 0.000000 0.000000 1.000000
vn 0.000000 0.000000 1.000000
vn 0.000000 0.000000 1.000000
vn 0.000000 0.000000 1.000000
vn 0.000000 0.000000 1.000000
vn 0.000000 0.000000 1.000000
vn 0.000000 0.000000 1.000000
vn 0.000000 0.000000 1.000000
vn 0.000000 0.000000 1.000000
vn 0.000000 0.000000 1.000000
vn 0.000000 0.000000 1.000000
vn 0.000000 0.000000 1.000000
vn 0.000000 0.000000 1.000000
vn 0.000000 0.000000 1.000000
vn 0.000000 0.000000 1.000000
vn 0.000000 0.000000 1.000000
vn 0.000000 0.000000 1.000000
vn 0.000000 0.000000 1.000000
vn 0.000000 0.000000 1.000000
vn 0.000000 0.000000 1.000000
vn 0.000000 0.000000 1.000000
vn 0.000000 0.000000 1.000000
vn 0.000000 0.000000 1.000000
vn 0.000000 0.000000 1.000000
vn 0.000000 0.000000 1.000000
vn 0.000000 0.000000 1.000000
vn 0.000000 0.000000 1.000000
vn 0.000000 0.000000 1.000000
vn 0.000000 0.000000 1.000000
vn 0.000000 0.000000 1.000000
vn 0.000000 0.000000 1.000000
vn 0.000000 0.000000 1.000000
vn 0.000000 0.000000 1.000000
vn 0.000000 0.000000 1.000000
vn 0.000000 0.000000 1.000000
vn 0.000000 0.000000 1.000000
vn 0.000000 0.000000 1.000000
vn 0.000000 0.000000 1.000000
vn 0.000000 0.000000 1.000000
vn 0.000000 0.000000 1.000000
vn 0.000000 0.000000 1.000000
vn 0.000000 0.000000 1.000000
vn 0.000000 0.000000 1.000000
vn 0.000000 0.000000 1.000000
vn 0.000000 0.000000 1.000000
vn 0.000000 0.000000 1.000000
vn 0.000000 0.000000 1.000000
vn 0.000000 0.000000 1.000000
vn 0.000000 0.000000 1.000000
vn 0.000000 0.000000 1.000000
vn 0.000000 0.000000 1.000000
vn 0.000000 0.000000 1.000000
vn 0.000000 0.000000 1.000000
vn 0.000000 0.000000 1.000000
vn 0.000000 0.000000 1.000000
vn 0.000000 0.000000 1.000000
vn 0.000000 0.000000 1.000000
vn 0.000000 0.000000 1.000000
vn 0.000000 0.000000 1.000000
vn 0.000000 0.000000 1.000000
vn 0.000000 0.000000 1.000000
vn 0.000000 0.000000 1.000000
vn 0.000000 0.000000 1.000000
s off
f 1/1/1 2/2/2 3/3/3 4/4/4 5/5/5 6/6/6 7/7/7 8/8/8 9/9/9 10/10/10 11/11/11 12/12/12 13/13/13 14/14/14 15/15/15 16/16/16 17/17/17 18/18/18 19/19/19 20/20/20 21/21/21 22/22/22 23/23/23 24/24/24 25/25/25 26/26/26 27/27/27 28/28/28 29/29/29 30/30/30 31/31/31 32/32/32 33/33/33 34/34/34 35/35/35 36/36/36 37/37/37 38/38/38 39/39/39 40/40/40 41/41/41 42/42/42 43/43/43 44/44/44 45/45/45 46/46/46 47/47/47 48/48/48 49/49/49 50/50/50 51/51/51 52/52/52 53/53/53 54/54/54 55/55/55 56/56/56 57/57/57 58/58/58 59/59/59 60/60/60 61/61/61 62/62/62 63/63/63 64/64/64 65/65/65 66/66/66 67/67/67 68/68/68 69/69/69 70/70/70 71/71/71 72/72/72 73/73/73 74/74/74 75/75/75 76/76/76 77/77/77 78/78/78 79/79/79 80/80/80 81/81/81 82/82/82 83/83/83 84/84/84 85/85/85 86/86/86 87/87/87 88/88/88 89/89/89 90/90/90 91/91/91 92/92/92 93/93/93 94/94/94 95/95/95 96/96/96
